<?xml version="1.0" encoding="iso-8859-1"?>
<!-- Generator: Adobe Illustrator 21.0.0, SVG Export Plug-In . SVG Version: 6.00 Build 0)  -->
<svg xmlns="http://www.w3.org/2000/svg" xmlns:xlink="http://www.w3.org/1999/xlink" version="1.1" id="Capa_1" x="0px" y="0px" viewBox="0 0 512 512" style="enable-background:new 0 0 512 512;" xml:space="preserve" width="512" height="512">
<path id="XMLID_157_" style="fill:rgb(0,0,0);" d="M509.019,186.526c0-17.223-9.765-32.783-24.822-40.409  c3.61-18.664,1.618-38.402-6.521-56.372c-2.032-4.486-6.137-7.689-10.982-8.57c-4.846-0.882-9.815,0.671-13.296,4.156  l-45.804,45.837l-17.843-17.856l45.819-45.853c3.479-3.481,5.029-8.447,4.148-13.289c-0.881-4.842-4.081-8.944-8.563-10.976  c-35.251-15.99-77.32-8.334-104.685,19.051c-21.026,21.041-30.573,49.989-26.482,78.992h-21.197l-5.644-5.649  c-4.731-4.734-11.021-7.342-17.713-7.342c-5.005,0-9.785,1.458-13.856,4.174l-20.071-20.086c4.624-8.777,3.246-19.985-4.07-27.305  l-62.633-62.68C125.557-6.921,77.957-7.518,48.694,21.017c-14.501,14.14-22.559,33.077-22.69,53.324  c-0.017,2.571,0.097,5.123,0.334,7.648c-14.327,7.916-23.356,23-23.356,39.637L2.85,480.964c0,11.241,6.007,21.105,14.977,26.55  C22.496,510.359,27.975,512,33.83,512h444.34c5.855,0,11.334-1.641,16.003-4.486c8.971-5.445,14.977-15.309,14.977-26.55  L509.019,186.526z M32.985,481.137V231.654h446.031v249.483H32.985z M473.594,174.845c3.363,2.85,5.421,7.087,5.421,11.681v15.124  h-28.401c2.782-2.219,5.464-4.608,8.026-7.171C464.563,188.552,469.558,181.933,473.594,174.845z M327.027,157.901  c3.714-3.716,5.213-9.105,3.952-14.206c-5.403-21.842,0.846-44.363,16.715-60.244c12.827-12.835,30.404-19.29,47.945-18.479  l-37.707,37.735c-5.854,5.858-5.854,15.35,0,21.208l39.051,39.08c6.683,5.662,15.251,5.09,21.223,0l37.681-37.709  c0.804,17.55-5.644,35.148-18.471,47.985c-15.865,15.876-38.361,22.126-60.176,16.725c-5.107-1.264-10.501,0.237-14.219,3.958  l-7.691,7.696h-71.774L327.027,157.901z M69.641,42.498c17.562-17.125,46.246-16.651,63.941,1.058l58.588,58.632  c-4.706,8.87-3.352,19.88,4.045,27.281l27.306,27.326c4.731,4.734,11.021,7.342,17.713,7.342c5.005,0,9.785-1.459,13.856-4.174  l13.731,13.742l-27.781,27.945h-55.067c-0.719-1.545-1.699-2.998-2.973-4.273l-27.304-27.325  c-7.319-7.325-18.521-8.707-27.297-4.084l-59.186-59.23c-8.594-8.601-13.283-20.037-13.205-32.203  C56.085,62.373,60.927,50.995,69.641,42.498z M47.988,127.946l63.268,63.316c7.4,7.404,18.403,8.763,27.272,4.058l6.326,6.33H32.985  v-80.024c0-3.401,1.12-6.607,3.073-9.203C39.304,118.021,43.287,123.242,47.988,127.946z"/>















</svg>